<?xml version="1.0" encoding="utf-8"?>
<!-- Generator: Adobe Illustrator 27.5.0, SVG Export Plug-In . SVG Version: 6.00 Build 0)  -->
<svg version="1.1" xmlns="http://www.w3.org/2000/svg" xmlns:xlink="http://www.w3.org/1999/xlink" x="0px" y="0px"
	 viewBox="0 0 500 500" style="enable-background:new 0 0 500 500;" xml:space="preserve">
<g id="BACKGROUND">
	<rect style="fill:#FFF6E7;" width="500" height="500"/>
</g>
<g id="OBJECTS">
	<path style="fill:#D3BFA5;" d="M47.7,179.065c1.129-26.571,8.688-52.267,25.489-75.916
		c63.185-88.939,221.557-86.686,309.191-36.611c26.314,15.036,48.95,38.09,58.017,66.604c7.324,23.031,5.433,47.695,5.302,71.785
		c-0.148,27.162,5.664,47.307,16.813,71.682c8.923,19.509,10.799,42.699,7.187,63.551c-7.836,45.245-41.547,81.861-81.999,102.627
		c-64.294,33.004-166.306,33.408-244.741,14.396c-39.641-9.609-77.499-29.058-96.749-56.418
		c-15.317-21.77-17.689-46.668-12.799-69.596c3.932-18.435,13.231-34.909,21.004-52.293c6.231-13.935,3.595-26.048-0.134-41.197
		C49.432,217.978,46.883,198.292,47.7,179.065z"/>
	<g>
		<g>
			<rect x="341.968" y="196.516" style="fill:#FFF6E7;" width="71.351" height="98.336"/>
			<rect x="348.471" y="207.611" style="fill:#D3BFA5;" width="58.417" height="2.54"/>
			<rect x="348.471" y="213.008" style="fill:#D3BFA5;" width="58.417" height="2.54"/>
			<rect x="348.471" y="218.406" style="fill:#D3BFA5;" width="58.417" height="2.54"/>
			<rect x="348.471" y="223.803" style="fill:#D3BFA5;" width="58.417" height="2.54"/>
			<rect x="348.471" y="229.2" style="fill:#D3BFA5;" width="58.417" height="2.54"/>
			<rect x="348.471" y="234.597" style="fill:#D3BFA5;" width="58.417" height="2.54"/>
			<rect x="348.471" y="239.994" style="fill:#D3BFA5;" width="58.417" height="2.54"/>
			<rect x="348.471" y="256.186" style="fill:#D3BFA5;" width="58.417" height="2.54"/>
			<rect x="348.471" y="261.583" style="fill:#D3BFA5;" width="58.417" height="2.54"/>
			<rect x="348.471" y="266.98" style="fill:#D3BFA5;" width="58.417" height="2.54"/>
			<rect x="348.471" y="272.378" style="fill:#D3BFA5;" width="58.417" height="2.54"/>
			<rect x="348.471" y="277.775" style="fill:#D3BFA5;" width="58.417" height="2.54"/>
			<rect x="348.471" y="283.172" style="fill:#D3BFA5;" width="58.417" height="2.54"/>
		</g>
		<polyline style="fill:none;stroke:#AF977B;stroke-miterlimit:10;" points="341.968,196.516 341.968,294.785 413.319,294.785 		"/>
	</g>
	<g>
		<g>
			<g>
				<rect x="276.958" y="51.669" style="fill:#FFF6E7;" width="96.11" height="132.459"/>
				<rect x="285.719" y="66.614" style="fill:#D3BFA5;" width="78.687" height="3.421"/>
				<rect x="285.719" y="73.884" style="fill:#D3BFA5;" width="78.687" height="3.421"/>
				<rect x="285.719" y="81.154" style="fill:#D3BFA5;" width="78.687" height="3.421"/>
				<rect x="285.719" y="88.424" style="fill:#D3BFA5;" width="78.687" height="3.421"/>
				<rect x="285.719" y="95.694" style="fill:#D3BFA5;" width="78.687" height="3.421"/>
				<rect x="285.719" y="102.964" style="fill:#D3BFA5;" width="78.687" height="3.421"/>
				<rect x="285.719" y="110.234" style="fill:#D3BFA5;" width="78.687" height="3.421"/>
				<rect x="285.719" y="117.504" style="fill:#D3BFA5;" width="78.687" height="3.421"/>
				<rect x="285.719" y="124.774" style="fill:#D3BFA5;" width="78.687" height="3.421"/>
				<rect x="285.719" y="132.044" style="fill:#D3BFA5;" width="78.687" height="3.421"/>
				<rect x="285.719" y="139.314" style="fill:#D3BFA5;" width="78.687" height="3.421"/>
				<rect x="285.719" y="146.584" style="fill:#D3BFA5;" width="78.687" height="3.421"/>
				<rect x="285.719" y="153.854" style="fill:#D3BFA5;" width="78.687" height="3.421"/>
				<rect x="285.719" y="161.124" style="fill:#D3BFA5;" width="78.687" height="3.421"/>
				<rect x="285.719" y="168.394" style="fill:#D3BFA5;" width="78.687" height="3.421"/>
				<rect x="329.569" y="80.342" style="fill:#FFF6E7;" width="37.431" height="49.574"/>
				<rect x="334.413" y="82.6" style="fill:#B29B7F;" width="29.064" height="43.884"/>
			</g>
			<line style="fill:none;stroke:#FFF6E7;stroke-miterlimit:10;" x1="334.413" y1="82.6" x2="363.478" y2="126.484"/>
			<line style="fill:none;stroke:#FFF6E7;stroke-miterlimit:10;" x1="363.478" y1="82.6" x2="334.413" y2="126.484"/>
		</g>
		<polyline style="fill:none;stroke:#AF977B;stroke-miterlimit:10;" points="373.068,184.128 276.958,184.128 276.958,51.669 		"/>
	</g>
	<g>
		<g>
			<rect x="81.004" y="61.534" style="fill:#FFF6E7;" width="121.655" height="167.666"/>
			<rect x="123.489" y="80.451" style="fill:#D3BFA5;" width="68.206" height="4.331"/>
			<rect x="123.489" y="89.653" style="fill:#D3BFA5;" width="68.206" height="4.331"/>
			<rect x="123.489" y="98.856" style="fill:#D3BFA5;" width="68.206" height="4.331"/>
			<rect x="123.489" y="108.058" style="fill:#D3BFA5;" width="68.206" height="4.331"/>
			<rect x="92.092" y="117.26" style="fill:#D3BFA5;" width="99.602" height="4.331"/>
			<rect x="92.092" y="126.463" style="fill:#D3BFA5;" width="99.602" height="4.331"/>
			<rect x="92.092" y="135.665" style="fill:#D3BFA5;" width="99.602" height="4.331"/>
			<rect x="92.092" y="144.867" style="fill:#D3BFA5;" width="99.602" height="4.331"/>
			<rect x="92.092" y="154.07" style="fill:#D3BFA5;" width="99.602" height="4.331"/>
			<rect x="92.092" y="163.272" style="fill:#D3BFA5;" width="99.602" height="4.331"/>
			<rect x="92.092" y="172.475" style="fill:#D3BFA5;" width="99.602" height="4.331"/>
			<rect x="92.092" y="181.677" style="fill:#D3BFA5;" width="99.602" height="4.331"/>
			<rect x="92.092" y="190.879" style="fill:#D3BFA5;" width="99.602" height="4.331"/>
			<rect x="92.092" y="200.081" style="fill:#D3BFA5;" width="99.602" height="4.331"/>
			<rect x="92.092" y="209.284" style="fill:#D3BFA5;" width="99.602" height="4.331"/>
			<g>
				<path style="fill:#B29B7F;" d="M99.652,102.217l-3.539,10.715h-4.548l11.573-34.067h5.309l11.627,34.067h-4.7l-3.642-10.715
					H99.652z M110.822,98.779l-3.334-9.805c-0.761-2.222-1.263-4.245-1.77-6.217h-0.103c-0.506,2.023-1.062,4.095-1.716,6.167
					l-3.338,9.855H110.822z"/>
			</g>
		</g>
		<polyline style="fill:none;stroke:#AF977B;stroke-miterlimit:10;" points="81.004,61.534 81.004,229.2 202.659,229.2 		"/>
	</g>
	<g>
		<g>
			<rect x="320.488" y="328.832" style="fill:#FFF6E7;" width="126.826" height="2.972"/>
			<rect x="316.488" y="331.804" style="fill:#FFF6E7;" width="126.826" height="2.973"/>
			<rect x="320.488" y="334.776" style="fill:#FFF6E7;" width="126.826" height="2.973"/>
			<rect x="323.488" y="337.749" style="fill:#FFF6E7;" width="126.826" height="2.973"/>
			<rect x="320.488" y="340.721" style="fill:#FFF6E7;" width="126.826" height="2.972"/>
			<rect x="319.488" y="343.694" style="fill:#FFF6E7;" width="126.826" height="2.973"/>
			<rect x="320.488" y="346.666" style="fill:#FFF6E7;" width="126.826" height="2.973"/>
			<rect x="321.488" y="349.639" style="fill:#FFF6E7;" width="126.826" height="2.972"/>
			<rect x="320.488" y="352.611" style="fill:#FFF6E7;" width="126.826" height="2.973"/>
			<rect x="318.488" y="355.584" style="fill:#FFF6E7;" width="126.826" height="2.973"/>
			<rect x="319.488" y="358.556" style="fill:#FFF6E7;" width="126.826" height="2.973"/>
			<rect x="320.488" y="361.529" style="fill:#FFF6E7;" width="126.826" height="2.972"/>
			<rect x="320.488" y="364.501" style="fill:#FFF6E7;" width="126.826" height="2.973"/>
			<rect x="319.488" y="367.474" style="fill:#FFF6E7;" width="126.826" height="2.973"/>
			<rect x="320.488" y="370.446" style="fill:#FFF6E7;" width="126.826" height="2.972"/>
			<rect x="320.488" y="373.419" style="fill:#FFF6E7;" width="126.826" height="2.973"/>
		</g>
		<line style="fill:none;stroke:#D6C7B4;stroke-miterlimit:10;" x1="440.708" y1="331.804" x2="354.176" y2="331.804"/>
		<line style="fill:none;stroke:#D6C7B4;stroke-miterlimit:10;" x1="420.231" y1="337.749" x2="333.699" y2="337.749"/>
		<line style="fill:none;stroke:#D6C7B4;stroke-miterlimit:10;" x1="445.313" y1="352.611" x2="358.781" y2="352.611"/>
		<line style="fill:none;stroke:#D6C7B4;stroke-miterlimit:10;" x1="417.24" y1="360.043" x2="330.708" y2="360.043"/>
		<line style="fill:none;stroke:#D6C7B4;stroke-miterlimit:10;" x1="443.332" y1="370.446" x2="356.8" y2="370.446"/>
	</g>
	<path style="fill:#EDDFCA;" d="M499.881,363.228c0,0-29.26-5.303-23.563,52.141c5.696,57.444-23.126,65.372-50.904,61.151
		s-35.043,10.476-36.573,23.48c107.77,0,111.04,0,111.04,0V363.228z"/>
	<path style="fill:none;stroke:#EDDFCA;stroke-width:0.6484;stroke-miterlimit:10;" d="M499.881,355.748
		c0,0-30.825-5.593-24.824,54.993s-24.363,68.948-53.627,64.495c-29.264-4.453-36.917,11.049-38.529,24.764"/>
	<path style="fill:#EDDFCA;" d="M0,391.681c0,0,35.475-4.2,28.569,41.294c-6.907,45.494,28.038,51.773,61.717,48.429
		c33.679-3.344,42.487,8.296,44.342,18.596C3.964,500,0,500,0,500V391.681z"/>
	<path style="fill:none;stroke:#EDDFCA;stroke-width:0.6354;stroke-miterlimit:10;" d="M0,385.757c0,0,37.374-4.43,30.097,43.552
		c-7.276,47.982,29.538,54.604,65.02,51.078c35.481-3.526,44.76,8.75,46.714,19.613"/>
	<g>
		<g>
			<path style="fill:#440707;" d="M192.75,174.195c-1.236,0.627-1.73,2.138-1.103,3.375c0.628,1.236,2.138,1.73,3.375,1.103
				c0.012-0.006,0.024-0.014,0.036-0.021c0.01,0.017,0.019,0.034,0.029,0.051c-0.012,0.007-0.025,0.013-0.037,0.02
				c-1.183,0.723-1.556,2.268-0.833,3.451c0.723,1.183,2.268,1.556,3.451,0.833c0.013-0.008,0.025-0.018,0.038-0.026
				c0.011,0.016,0.021,0.033,0.032,0.049c-0.013,0.009-0.026,0.016-0.039,0.025c-1.123,0.814-1.373,2.384-0.559,3.506
				c0.814,1.123,2.383,1.373,3.506,0.559c0.013-0.01,0.024-0.02,0.037-0.03c0.012,0.015,0.023,0.031,0.036,0.046
				c-0.012,0.01-0.025,0.018-0.037,0.029c-1.055,0.9-1.181,2.484-0.281,3.539c0.9,1.055,2.484,1.181,3.539,0.281
				c0.013-0.011,0.025-0.024,0.038-0.035c0.013,0.014,0.027,0.028,0.04,0.043c-0.013,0.012-0.026,0.022-0.038,0.035
				c-0.981,0.98-0.981,2.57-0.001,3.55c0.98,0.981,2.57,0.981,3.55,0.001c0.013-0.013,0.023-0.027,0.036-0.04
				c0.014,0.013,0.029,0.027,0.043,0.04c-0.012,0.013-0.025,0.025-0.037,0.039c-0.9,1.054-0.776,2.639,0.278,3.539
				c1.054,0.901,2.639,0.776,3.54-0.278c0.011-0.013,0.02-0.026,0.03-0.039c0.015,0.012,0.03,0.024,0.046,0.036
				c-0.01,0.013-0.021,0.025-0.031,0.038c-0.815,1.122-0.566,2.692,0.556,3.507c1.122,0.815,2.692,0.565,3.506-0.556
				c0.009-0.012,0.015-0.024,0.024-0.036c0.016,0.011,0.033,0.021,0.049,0.032c-0.008,0.012-0.017,0.023-0.025,0.036
				c-0.724,1.183-0.352,2.728,0.831,3.452c1.183,0.724,2.728,0.352,3.452-0.831c0.007-0.012,0.013-0.025,0.02-0.037
				c0.017,0.01,0.034,0.019,0.051,0.028c-0.007,0.012-0.014,0.024-0.021,0.036c-0.628,1.236-0.136,2.747,1.1,3.376
				c1.236,0.628,2.747,0.136,3.376-1.1c0.006-0.011,0.01-0.023,0.016-0.035c0.018,0.008,0.035,0.016,0.053,0.024
				c-0.005,0.012-0.011,0.023-0.016,0.034c-0.529,1.282,0.081,2.749,1.363,3.279c1.282,0.529,2.749-0.081,3.278-1.363
				c0.004-0.011,0.007-0.022,0.011-0.032c0.018,0.007,0.036,0.014,0.054,0.021c-0.004,0.011-0.008,0.021-0.012,0.032
				c-0.426,1.319,0.298,2.735,1.617,3.161c1.319,0.426,2.734-0.298,3.161-1.617c0.003-0.011,0.005-0.021,0.009-0.032
				c0.019,0.005,0.037,0.01,0.056,0.015c-0.003,0.011-0.007,0.021-0.01,0.032c-0.321,1.349,0.512,2.703,1.861,3.024
				c1.349,0.321,2.703-0.512,3.024-1.861c0.003-0.013,0.004-0.026,0.007-0.039c0.019,0.004,0.038,0.007,0.057,0.011
				c-0.002,0.013-0.006,0.026-0.008,0.039c-0.214,1.37,0.724,2.654,2.093,2.868c1.37,0.214,2.654-0.723,2.868-2.093
				c0.002-0.016,0.003-0.031,0.005-0.047c0.019,0.002,0.039,0.004,0.058,0.006c-0.002,0.016-0.005,0.031-0.006,0.047
				c-0.105,1.383,0.93,2.589,2.313,2.694c1.383,0.105,2.589-0.93,2.694-2.313c0.001-0.018,0-0.035,0.001-0.053
				c0.019,0.001,0.039,0.001,0.058,0.002c0,0.018-0.003,0.035-0.003,0.053c0.004,1.387,1.131,2.507,2.518,2.503
				c0.678-0.002,1.291-0.274,1.741-0.711c0.475,0.411,1.103,0.646,1.78,0.608c1.384-0.077,2.444-1.262,2.367-2.646
				c-0.001-0.017-0.004-0.033-0.005-0.049c0.019-0.002,0.039-0.003,0.058-0.005c0.002,0.017,0.002,0.033,0.004,0.049
				c0.186,1.374,1.45,2.337,2.824,2.151c1.374-0.186,2.337-1.451,2.151-2.824c-0.002-0.014-0.006-0.028-0.008-0.042
				c0.019-0.003,0.038-0.006,0.057-0.01c0.003,0.014,0.004,0.028,0.007,0.042c0.294,1.355,1.63,2.216,2.985,1.922
				c1.355-0.294,2.216-1.63,1.922-2.985c-0.003-0.012-0.007-0.023-0.009-0.034c0.019-0.005,0.038-0.009,0.056-0.014
				c0.003,0.011,0.005,0.023,0.008,0.034c0.399,1.328,1.799,2.08,3.127,1.681c1.328-0.399,2.08-1.799,1.681-3.127
				c-0.003-0.01-0.008-0.02-0.011-0.031c0.018-0.006,0.036-0.013,0.055-0.019c0.004,0.01,0.007,0.021,0.01,0.032
				c0.503,1.292,1.958,1.932,3.25,1.429c1.292-0.503,1.932-1.958,1.429-3.25c-0.005-0.011-0.01-0.022-0.015-0.033
				c0.018-0.008,0.035-0.016,0.053-0.024c0.005,0.011,0.009,0.023,0.014,0.034c0.603,1.249,2.104,1.772,3.353,1.169
				c1.248-0.603,1.772-2.104,1.169-3.353c-0.006-0.012-0.013-0.023-0.02-0.036c0.017-0.009,0.034-0.018,0.051-0.027
				c0.007,0.012,0.012,0.024,0.019,0.036c0.7,1.197,2.237,1.6,3.434,0.901c1.197-0.699,1.601-2.237,0.901-3.434
				c-0.007-0.013-0.016-0.024-0.024-0.036c0.016-0.01,0.033-0.02,0.049-0.031c0.008,0.012,0.014,0.025,0.023,0.037
				c0.792,1.138,2.356,1.419,3.495,0.628s1.419-2.356,0.628-3.494c-0.009-0.013-0.02-0.024-0.029-0.037
				c0.016-0.012,0.031-0.024,0.046-0.036c0.01,0.012,0.018,0.026,0.028,0.038c0.879,1.072,2.461,1.229,3.533,0.35
				c1.072-0.879,1.229-2.461,0.35-3.533c-0.011-0.014-0.024-0.025-0.035-0.039c0.015-0.013,0.029-0.026,0.043-0.039
				c0.012,0.013,0.022,0.027,0.035,0.04c0.961,1,2.55,1.032,3.55,0.071c1-0.961,1.032-2.55,0.071-3.55
				c-0.012-0.013-0.026-0.024-0.039-0.036c0.014-0.014,0.027-0.028,0.041-0.042c0.013,0.012,0.024,0.025,0.038,0.037
				c1.036,0.921,2.623,0.828,3.544-0.209c0.921-1.036,0.828-2.623-0.209-3.544c-0.012-0.011-0.025-0.02-0.037-0.03
				c0.012-0.015,0.025-0.029,0.037-0.045c0.013,0.01,0.024,0.021,0.036,0.03c1.106,0.837,2.68,0.618,3.517-0.487
				c0.836-1.106,0.618-2.68-0.488-3.517c-0.013-0.01-0.026-0.017-0.039-0.026c0.011-0.016,0.022-0.032,0.033-0.048
				c0.013,0.009,0.025,0.019,0.038,0.027c1.168,0.747,2.721,0.405,3.467-0.763c0.747-1.168,0.405-2.721-0.763-3.467
				c-0.012-0.008-0.025-0.014-0.038-0.022c0.01-0.017,0.02-0.033,0.029-0.05c0.013,0.007,0.024,0.016,0.037,0.022
				c1.223,0.653,2.744,0.19,3.397-1.034c0.652-1.223,0.19-2.744-1.034-3.397c-0.011-0.006-0.023-0.01-0.034-0.016
				c0.008-0.017,0.017-0.035,0.026-0.052c0.011,0.005,0.022,0.012,0.033,0.017c1.271,0.554,2.75-0.027,3.304-1.298
				c0.554-1.271-0.027-2.75-1.298-3.305c-0.01-0.004-0.02-0.007-0.03-0.011c0.007-0.018,0.014-0.036,0.02-0.054
				c0.01,0.004,0.02,0.009,0.03,0.012c1.311,0.452,2.74-0.244,3.192-1.555c0.452-1.311-0.244-2.74-1.555-3.192
				c-0.011-0.004-0.023-0.006-0.034-0.01c0.006-0.018,0.011-0.037,0.016-0.056c0.012,0.003,0.022,0.008,0.034,0.011
				c1.342,0.348,2.712-0.459,3.06-1.801c0.348-1.342-0.459-2.712-1.801-3.06c-0.013-0.003-0.026-0.005-0.039-0.008
				c0.004-0.019,0.008-0.038,0.012-0.057c0.013,0.003,0.026,0.007,0.039,0.009c1.366,0.241,2.668-0.671,2.908-2.037
				c0.241-1.366-0.671-2.667-2.037-2.908c-0.015-0.003-0.03-0.003-0.046-0.006c0.003-0.019,0.005-0.038,0.008-0.058
				c0.015,0.002,0.03,0.005,0.046,0.007c1.38,0.132,2.606-0.879,2.739-2.259c0.132-1.38-0.879-2.606-2.259-2.739
				c-0.017-0.002-0.034-0.001-0.051-0.002c0.001-0.02,0.003-0.039,0.004-0.058c0.017,0.001,0.034,0.003,0.051,0.003
				c1.386,0.023,2.529-1.082,2.552-2.468c0.023-1.386-1.082-2.529-2.468-2.552c-0.018,0-0.035,0.002-0.053,0.002
				c0-0.019,0-0.039-0.001-0.058c0.017-0.001,0.035,0.001,0.052,0c1.384-0.086,2.436-1.278,2.35-2.662
				c-0.086-1.384-1.278-2.436-2.661-2.35c-0.016,0.001-0.031,0.004-0.047,0.005c-0.002-0.019-0.003-0.039-0.005-0.058
				c0.016-0.002,0.031-0.002,0.046-0.004c1.373-0.195,2.328-1.466,2.133-2.838c-0.195-1.373-1.466-2.328-2.838-2.133
				c-0.013,0.002-0.025,0.005-0.038,0.007c-0.004-0.019-0.006-0.038-0.01-0.057c0.013-0.003,0.025-0.004,0.038-0.006
				c1.353-0.302,2.205-1.645,1.902-2.998c-0.302-1.353-1.644-2.205-2.998-1.902c-0.012,0.003-0.023,0.007-0.034,0.009
				c-0.005-0.019-0.01-0.037-0.015-0.056c0.012-0.003,0.023-0.005,0.035-0.009c1.325-0.408,2.069-1.813,1.66-3.138
				c-0.408-1.325-1.813-2.068-3.138-1.66c-0.012,0.004-0.022,0.008-0.034,0.012c-0.007-0.018-0.013-0.036-0.02-0.055
				c0.011-0.004,0.023-0.007,0.034-0.012c1.289-0.511,1.919-1.97,1.408-3.259c-0.511-1.289-1.971-1.919-3.259-1.408
				c-0.012,0.005-0.022,0.011-0.034,0.015c-0.008-0.018-0.016-0.035-0.023-0.053c0.011-0.005,0.023-0.009,0.034-0.015
				c1.245-0.611,1.758-2.116,1.147-3.36c-0.611-1.245-2.115-1.758-3.36-1.147c-0.012,0.006-0.023,0.013-0.034,0.019
				c-0.009-0.017-0.018-0.034-0.027-0.051c0.011-0.006,0.023-0.011,0.034-0.018c1.193-0.707,1.586-2.247,0.879-3.44
				c-0.707-1.193-2.247-1.586-3.44-0.879c-0.012,0.007-0.023,0.016-0.036,0.024c-0.01-0.016-0.022-0.032-0.032-0.049
				c0.012-0.008,0.025-0.015,0.037-0.023c1.133-0.799,1.404-2.365,0.605-3.498c-0.799-1.133-2.365-1.404-3.499-0.605
				c-0.014,0.01-0.026,0.021-0.039,0.031c-0.012-0.015-0.024-0.031-0.036-0.046c0.013-0.01,0.027-0.019,0.04-0.03
				c1.067-0.886,1.213-2.469,0.327-3.535c-0.886-1.067-2.469-1.213-3.535-0.327c-0.014,0.011-0.025,0.024-0.039,0.036
				c-0.013-0.015-0.026-0.029-0.039-0.044c0.013-0.012,0.027-0.022,0.039-0.035c0.994-0.967,1.015-2.557,0.048-3.55
				s-2.556-1.015-3.55-0.048c-0.012,0.012-0.022,0.025-0.034,0.037c-0.014-0.013-0.028-0.027-0.042-0.041
				c0.011-0.012,0.023-0.023,0.034-0.035c0.914-1.042,0.81-2.629-0.232-3.543c-1.042-0.914-2.629-0.81-3.543,0.232
				c-0.011,0.013-0.02,0.026-0.031,0.039c-0.015-0.012-0.03-0.024-0.046-0.036c0.01-0.013,0.022-0.025,0.032-0.039
				c0.829-1.111,0.601-2.684-0.51-3.513c-1.111-0.829-2.684-0.601-3.514,0.51c-0.01,0.013-0.017,0.027-0.027,0.04
				c-0.016-0.011-0.032-0.022-0.048-0.033c0.009-0.013,0.019-0.025,0.027-0.039c0.739-1.173,0.387-2.723-0.786-3.462
				c-1.173-0.739-2.723-0.387-3.462,0.786c-0.008,0.012-0.013,0.024-0.02,0.036c-0.017-0.01-0.033-0.02-0.05-0.03
				c0.007-0.012,0.014-0.023,0.021-0.035c0.644-1.228,0.172-2.745-1.056-3.39c-1.228-0.644-2.745-0.172-3.39,1.056
				c-0.006,0.01-0.009,0.021-0.015,0.032c-0.018-0.008-0.035-0.016-0.053-0.025c0.005-0.011,0.011-0.021,0.016-0.032
				c0.546-1.275-0.045-2.75-1.32-3.296s-2.75,0.045-3.296,1.32c-0.005,0.011-0.008,0.022-0.012,0.033
				c-0.018-0.007-0.036-0.014-0.054-0.02c0.004-0.011,0.009-0.022,0.013-0.033c0.444-1.314-0.262-2.738-1.575-3.182
				c-1.314-0.444-2.738,0.262-3.182,1.575c-0.004,0.012-0.006,0.024-0.01,0.036c-0.018-0.006-0.037-0.011-0.056-0.016
				c0.003-0.012,0.008-0.023,0.011-0.035c0.339-1.345-0.477-2.709-1.821-3.048c-1.345-0.339-2.709,0.477-3.048,1.821
				c-0.003,0.013-0.005,0.026-0.008,0.039c-0.019-0.004-0.038-0.008-0.057-0.012c0.002-0.013,0.006-0.026,0.009-0.039
				c0.232-1.367-0.689-2.663-2.056-2.895c-1.367-0.232-2.663,0.689-2.895,2.056c-0.002,0.015-0.003,0.029-0.005,0.044
				c-0.019-0.002-0.038-0.006-0.058-0.008c0.002-0.015,0.005-0.029,0.006-0.044c0.123-1.381-0.896-2.601-2.277-2.724
				c-1.381-0.123-2.6,0.896-2.724,2.277c-0.001,0.016-0.001,0.032-0.002,0.048c-0.02-0.001-0.039-0.003-0.058-0.004
				c0-0.016,0.003-0.032,0.003-0.048c0.014-1.386-1.098-2.522-2.485-2.536c-1.386-0.014-2.522,1.098-2.536,2.485
				c0,0.016,0.002,0.032,0.002,0.049c-0.02,0-0.039,0.002-0.058,0.002c-0.001-0.017,0-0.033-0.001-0.049
				c-0.095-1.383-1.294-2.428-2.677-2.332c-1.383,0.095-2.428,1.294-2.332,2.677c0.001,0.015,0.004,0.03,0.005,0.045
				c-0.019,0.002-0.038,0.005-0.058,0.007c-0.002-0.015-0.002-0.03-0.005-0.046c-0.204-1.372-1.481-2.318-2.852-2.114
				c-1.372,0.204-2.318,1.481-2.114,2.852c0.002,0.014,0.006,0.027,0.008,0.04c-0.019,0.004-0.038,0.008-0.057,0.011
				c-0.003-0.014-0.004-0.027-0.007-0.041c-0.311-1.351-1.659-2.194-3.01-1.883c-1.351,0.311-2.194,1.659-1.883,3.01
				c0.003,0.012,0.007,0.024,0.01,0.036c-0.019,0.005-0.037,0.01-0.056,0.015c-0.004-0.012-0.006-0.024-0.009-0.037
				c-0.417-1.322-1.827-2.057-3.149-1.64s-2.057,1.827-1.64,3.149c0.004,0.012,0.009,0.022,0.013,0.034
				c-0.018,0.007-0.036,0.013-0.055,0.019c-0.004-0.011-0.007-0.023-0.012-0.034c-0.52-1.285-1.983-1.906-3.268-1.387
				c-1.285,0.52-1.906,1.983-1.387,3.269c0.005,0.011,0.01,0.021,0.015,0.032c-0.018,0.008-0.035,0.016-0.053,0.023
				c-0.005-0.01-0.009-0.021-0.014-0.032c-0.619-1.241-2.127-1.744-3.368-1.125c-1.241,0.619-1.744,2.127-1.125,3.368
				c0.006,0.012,0.013,0.022,0.019,0.034c-0.017,0.009-0.034,0.019-0.051,0.028c-0.007-0.011-0.012-0.023-0.018-0.034
				c-0.715-1.188-2.258-1.571-3.446-0.856c-1.188,0.715-1.571,2.258-0.856,3.446c0.008,0.013,0.017,0.025,0.026,0.038
				c-0.016,0.011-0.032,0.021-0.049,0.032c-0.009-0.013-0.016-0.026-0.025-0.039c-0.807-1.128-2.375-1.388-3.502-0.582
				c-1.128,0.806-1.388,2.375-0.582,3.502c0.01,0.014,0.021,0.026,0.031,0.039c-0.015,0.012-0.031,0.024-0.046,0.035
				c-0.01-0.013-0.019-0.027-0.03-0.04c-0.893-1.061-2.477-1.197-3.537-0.304c-1.061,0.893-1.197,2.477-0.304,3.537
				c0.011,0.013,0.023,0.024,0.034,0.036c-0.014,0.013-0.029,0.026-0.044,0.039c-0.011-0.012-0.021-0.025-0.033-0.037
				c-0.974-0.987-2.563-0.998-3.55-0.025c-0.987,0.974-0.998,2.563-0.025,3.55c0.012,0.013,0.026,0.023,0.038,0.035
				c-0.013,0.014-0.026,0.029-0.04,0.043c-0.013-0.012-0.024-0.025-0.038-0.036c-1.048-0.907-2.634-0.793-3.541,0.255
				c-0.907,1.048-0.793,2.634,0.255,3.541c0.013,0.011,0.027,0.021,0.04,0.032c-0.012,0.015-0.024,0.03-0.036,0.046
				c-0.014-0.011-0.026-0.022-0.04-0.032c-1.116-0.822-2.688-0.583-3.51,0.533c-0.822,1.117-0.583,2.688,0.533,3.51
				c0.012,0.009,0.026,0.017,0.038,0.025c-0.011,0.016-0.022,0.032-0.033,0.048c-0.013-0.008-0.024-0.018-0.037-0.026
				c-1.178-0.731-2.726-0.369-3.457,0.808c-0.731,1.178-0.369,2.726,0.808,3.457c0.011,0.007,0.023,0.012,0.034,0.019
				c-0.01,0.017-0.019,0.034-0.028,0.051c-0.012-0.006-0.022-0.014-0.034-0.02c-1.232-0.636-2.746-0.154-3.383,1.078
				c-0.636,1.232-0.154,2.746,1.078,3.383c0.011,0.006,0.023,0.01,0.035,0.016c-0.008,0.018-0.016,0.035-0.024,0.053
				c-0.012-0.005-0.022-0.012-0.034-0.017c-1.278-0.537-2.75,0.063-3.287,1.341c-0.537,1.278,0.063,2.75,1.341,3.287
				c0.011,0.005,0.023,0.008,0.034,0.012c-0.007,0.018-0.014,0.036-0.02,0.054c-0.012-0.004-0.022-0.009-0.034-0.013
				c-1.316-0.435-2.736,0.28-3.171,1.596c-0.435,1.317,0.28,2.736,1.596,3.171c0.011,0.004,0.023,0.006,0.035,0.009
				c-0.005,0.019-0.011,0.037-0.016,0.056c-0.012-0.003-0.022-0.007-0.034-0.01c-1.347-0.33-2.706,0.494-3.036,1.841
				c-0.33,1.347,0.494,2.706,1.841,3.036c0.012,0.003,0.024,0.004,0.036,0.007c-0.004,0.019-0.008,0.038-0.012,0.057
				c-0.012-0.002-0.024-0.006-0.036-0.008c-1.369-0.223-2.658,0.706-2.881,2.075c-0.223,1.368,0.706,2.658,2.075,2.881
				c0.015,0.002,0.029,0.003,0.044,0.005c-0.002,0.019-0.004,0.039-0.006,0.058c-0.015-0.001-0.029-0.005-0.044-0.006
				c-1.382-0.114-2.595,0.913-2.709,2.295c-0.114,1.382,0.913,2.595,2.295,2.709c0.017,0.001,0.034,0.001,0.051,0.002
				c-0.001,0.02-0.001,0.039-0.002,0.058c-0.017-0.001-0.034-0.003-0.051-0.003c-1.387-0.005-2.515,1.115-2.52,2.501
				c-0.005,1.387,1.115,2.515,2.501,2.52c0.018,0,0.035-0.002,0.052-0.002c0.001,0.019,0.002,0.039,0.002,0.058
				c-0.018,0.001-0.035,0-0.053,0.001c-1.383,0.104-2.419,1.309-2.315,2.692c0.104,1.383,1.31,2.419,2.692,2.315
				c0.016-0.001,0.031-0.005,0.048-0.006c0.002,0.019,0.005,0.039,0.007,0.058c-0.016,0.002-0.032,0.003-0.048,0.005
				c-1.37,0.213-2.308,1.496-2.095,2.866c0.213,1.37,1.496,2.308,2.866,2.095c0.014-0.002,0.027-0.006,0.041-0.009
				c0.004,0.019,0.007,0.038,0.011,0.057c-0.014,0.003-0.027,0.004-0.041,0.008c-1.349,0.32-2.183,1.673-1.863,3.022
				c0.32,1.349,1.673,2.183,3.022,1.863c0.012-0.003,0.023-0.007,0.036-0.01c0.005,0.019,0.01,0.037,0.015,0.056
				c-0.012,0.004-0.024,0.006-0.036,0.009c-1.32,0.425-2.045,1.84-1.619,3.16c0.425,1.32,1.84,2.045,3.16,1.619
				c0.011-0.003,0.021-0.008,0.031-0.012c0.007,0.018,0.013,0.036,0.019,0.055c-0.01,0.004-0.021,0.007-0.031,0.011
				c-1.282,0.528-1.893,1.995-1.365,3.277c0.528,1.282,1.995,1.893,3.277,1.365c0.011-0.005,0.021-0.01,0.032-0.015
				c0.008,0.018,0.017,0.035,0.025,0.053C192.771,174.186,192.76,174.189,192.75,174.195"/>
			<g>
				<path style="fill:#260404;" d="M315.275,131.068c-0.448,0.437-1.063,0.702-1.738,0.69c-0.017,0-0.033-0.003-0.049-0.003
					c-0.001,0.019-0.002,0.038-0.003,0.057c0.017,0.001,0.033,0.001,0.05,0.002c1.337,0.128,2.318,1.316,2.19,2.654
					c-0.032,0.331-0.129,0.64-0.277,0.916c0.858-0.554,1.325-1.6,1.09-2.655C316.37,131.989,315.893,131.401,315.275,131.068z"/>
				<path style="fill:#260404;" d="M315.12,127.459c-0.131-0.336-0.326-0.63-0.569-0.871c-0.283,0.141-0.598,0.229-0.934,0.25
					c-0.017,0.001-0.034,0-0.051,0.001c0,0.019,0,0.038,0.001,0.057c0.017,0,0.034-0.002,0.051-0.002
					C314.193,126.903,314.71,127.119,315.12,127.459z"/>
				<path style="fill:#260404;" d="M188.068,125.764c0.252-0.087,0.518-0.143,0.799-0.142c0.017,0,0.033,0.002,0.05,0.003
					c0.001-0.019,0.001-0.038,0.002-0.057c-0.017-0.001-0.033,0-0.049-0.002c-0.198-0.016-0.385-0.062-0.565-0.122
					C188.216,125.542,188.141,125.652,188.068,125.764z"/>
				<path style="fill:#260404;" d="M186.608,133.152c-0.101-1.34,0.903-2.508,2.243-2.609c0.017-0.001,0.034,0,0.051-0.001
					c-0.001-0.019-0.002-0.038-0.002-0.057c-0.017,0-0.034,0.002-0.051,0.002c-0.576-0.002-1.097-0.212-1.512-0.548
					c-0.485,0.337-0.855,0.843-1.007,1.462c-0.168,0.684-0.036,1.371,0.309,1.925C186.63,133.268,186.613,133.212,186.608,133.152z"
					/>
				<path style="fill:#260404;" d="M315.581,150.957c-0.017-0.002-0.034-0.001-0.051-0.002c0.001-0.02,0.002-0.039,0.004-0.058
					c0.017,0.001,0.034,0.003,0.051,0.003c1.386,0.023,2.529-1.082,2.552-2.468c0.023-1.386-1.082-2.529-2.468-2.552
					c-0.018,0-0.035,0.002-0.053,0.002c0-0.019,0-0.039-0.001-0.058c0.017-0.001,0.035,0.001,0.052,0
					c1.384-0.086,2.436-1.278,2.35-2.662c-0.086-1.384-1.278-2.436-2.661-2.35c-0.016,0.001-0.031,0.004-0.047,0.005
					c-0.002-0.019-0.003-0.039-0.005-0.058c0.016-0.002,0.031-0.002,0.046-0.004c1.373-0.195,2.328-1.466,2.133-2.838
					c-0.169-1.188-1.144-2.059-2.293-2.147c-0.496,0.61-1.278,0.97-2.12,0.889c-0.015-0.001-0.029-0.005-0.044-0.006
					c-0.002,0.019-0.005,0.037-0.008,0.056c0.015,0.002,0.03,0.003,0.044,0.005c1.323,0.233,2.207,1.495,1.974,2.818
					c-0.233,1.323-1.495,2.207-2.818,1.974c-0.013-0.002-0.025-0.006-0.038-0.009c-0.004,0.018-0.008,0.037-0.012,0.055
					c0.013,0.003,0.025,0.005,0.038,0.008c1.301,0.337,2.082,1.664,1.745,2.965c-0.337,1.301-1.664,2.082-2.965,1.745
					c-0.011-0.003-0.022-0.007-0.033-0.01c-0.006,0.018-0.011,0.036-0.016,0.054c0.011,0.004,0.022,0.006,0.033,0.01
					c1.27,0.438,1.945,1.823,1.506,3.093c-0.438,1.27-1.823,1.945-3.093,1.506c-0.01-0.003-0.019-0.008-0.029-0.012
					c-0.007,0.018-0.013,0.035-0.02,0.053c0.01,0.004,0.019,0.007,0.029,0.011c1.232,0.537,1.795,1.971,1.258,3.202
					c-0.537,1.232-1.971,1.795-3.202,1.258c-0.011-0.005-0.021-0.011-0.032-0.016c-0.008,0.017-0.017,0.034-0.025,0.05
					c0.011,0.006,0.022,0.01,0.033,0.016c1.186,0.632,1.634,2.106,1.002,3.291c-0.632,1.186-2.106,1.634-3.291,1.002
					c-0.013-0.007-0.024-0.015-0.036-0.022c-0.01,0.016-0.019,0.032-0.029,0.049c0.012,0.007,0.025,0.013,0.037,0.021
					c1.132,0.724,1.463,2.228,0.739,3.36c-0.724,1.132-2.228,1.463-3.36,0.739c-0.013-0.008-0.024-0.018-0.037-0.027
					c-0.011,0.015-0.021,0.031-0.032,0.047c0.012,0.009,0.025,0.016,0.038,0.025c1.072,0.811,1.283,2.336,0.472,3.408
					c-0.811,1.072-2.336,1.283-3.408,0.472c-0.012-0.009-0.023-0.02-0.035-0.029c-0.012,0.015-0.024,0.029-0.036,0.043
					c0.012,0.01,0.025,0.019,0.036,0.029c1.004,0.893,1.095,2.43,0.202,3.435c-0.892,1.004-2.43,1.095-3.434,0.202
					c-0.013-0.011-0.024-0.024-0.036-0.036c-0.013,0.014-0.026,0.027-0.039,0.041c0.012,0.012,0.025,0.023,0.037,0.035
					c0.931,0.969,0.9,2.509-0.069,3.44c-0.969,0.931-2.509,0.9-3.44-0.069c-0.012-0.012-0.022-0.026-0.034-0.038
					c-0.014,0.012-0.028,0.025-0.042,0.038c0.011,0.013,0.023,0.025,0.034,0.038c0.852,1.039,0.7,2.572-0.34,3.424
					c-1.039,0.852-2.572,0.7-3.424-0.34c-0.01-0.012-0.018-0.025-0.027-0.037c-0.015,0.011-0.03,0.023-0.045,0.034
					c0.009,0.012,0.019,0.023,0.028,0.036c0.767,1.103,0.495,2.619-0.608,3.386c-1.103,0.767-2.619,0.495-3.386-0.608
					c-0.008-0.012-0.014-0.024-0.022-0.035c-0.016,0.01-0.032,0.02-0.048,0.03c0.007,0.012,0.016,0.023,0.023,0.035
					c0.678,1.16,0.287,2.65-0.873,3.328c-1.16,0.678-2.65,0.287-3.328-0.873c-0.007-0.012-0.012-0.023-0.018-0.035
					c-0.017,0.009-0.033,0.018-0.05,0.027c0.006,0.012,0.013,0.023,0.019,0.035c0.584,1.21,0.077,2.664-1.133,3.249
					c-1.21,0.584-2.664,0.077-3.249-1.133c-0.005-0.011-0.009-0.022-0.014-0.033c-0.017,0.008-0.034,0.015-0.051,0.023
					c0.004,0.011,0.01,0.021,0.014,0.032c0.487,1.252-0.133,2.662-1.385,3.149c-1.252,0.487-2.662-0.133-3.149-1.385
					c-0.004-0.01-0.006-0.021-0.01-0.031c-0.018,0.006-0.035,0.013-0.053,0.019c0.003,0.01,0.008,0.02,0.011,0.03
					c0.387,1.287-0.342,2.643-1.629,3.03c-1.287,0.387-2.643-0.342-3.031-1.629c-0.003-0.011-0.005-0.022-0.008-0.033
					c-0.018,0.005-0.036,0.009-0.055,0.013c0.003,0.011,0.007,0.022,0.009,0.033c0.284,1.313-0.549,2.608-1.863,2.893
					c-1.313,0.284-2.608-0.549-2.893-1.863c-0.003-0.014-0.004-0.027-0.007-0.04c-0.018,0.003-0.037,0.006-0.056,0.009
					c0.002,0.014,0.006,0.027,0.008,0.041c0.18,1.332-0.753,2.557-2.085,2.737c-1.332,0.18-2.557-0.753-2.737-2.085
					c-0.002-0.016-0.002-0.032-0.004-0.048c-0.019,0.002-0.038,0.003-0.056,0.005c0.001,0.016,0.004,0.032,0.005,0.048
					c0.075,1.342-0.952,2.49-2.294,2.564c-0.656,0.036-1.264-0.191-1.725-0.589c-0.436,0.424-1.031,0.687-1.687,0.689
					c-1.344,0.004-2.436-1.082-2.44-2.426c0-0.017,0.002-0.034,0.002-0.051c-0.019-0.001-0.038-0.001-0.056-0.002
					c-0.001,0.017,0,0.034-0.001,0.051c-0.102,1.34-1.271,2.343-2.61,2.241c-1.34-0.102-2.343-1.271-2.241-2.61
					c0.001-0.016,0.004-0.03,0.006-0.046c-0.019-0.002-0.038-0.004-0.056-0.006c-0.002,0.015-0.002,0.03-0.005,0.046
					c-0.207,1.327-1.451,2.236-2.779,2.028c-1.327-0.207-2.236-1.451-2.028-2.779c0.002-0.013,0.006-0.025,0.008-0.038
					c-0.018-0.004-0.037-0.007-0.055-0.01c-0.003,0.013-0.004,0.025-0.007,0.038c-0.311,1.307-1.623,2.114-2.93,1.803
					c-1.307-0.311-2.115-1.623-1.803-2.93c0.003-0.011,0.007-0.021,0.009-0.031c-0.018-0.005-0.036-0.009-0.054-0.014
					c-0.003,0.01-0.005,0.021-0.008,0.031c-0.413,1.279-1.785,1.98-3.063,1.567c-1.278-0.413-1.98-1.785-1.567-3.063
					c0.003-0.01,0.008-0.02,0.012-0.031c-0.018-0.006-0.035-0.013-0.053-0.02c-0.004,0.01-0.007,0.021-0.011,0.031
					c-0.513,1.242-1.935,1.833-3.177,1.321c-1.242-0.513-1.833-1.935-1.321-3.177c0.005-0.011,0.011-0.022,0.016-0.033
					c-0.017-0.008-0.034-0.016-0.051-0.024c-0.005,0.011-0.009,0.023-0.015,0.034c-0.609,1.198-2.073,1.675-3.271,1.066
					c-1.198-0.609-1.675-2.073-1.066-3.271c0.006-0.012,0.014-0.023,0.02-0.035c-0.016-0.009-0.033-0.018-0.049-0.027
					c-0.007,0.012-0.012,0.024-0.019,0.035c-0.701,1.146-2.199,1.507-3.345,0.805c-1.146-0.701-1.506-2.199-0.805-3.345
					c0.008-0.012,0.016-0.023,0.024-0.035c-0.016-0.01-0.032-0.02-0.047-0.031c-0.008,0.012-0.015,0.024-0.023,0.035
					c-0.79,1.087-2.311,1.329-3.398,0.539s-1.329-2.311-0.539-3.398c0.009-0.013,0.02-0.024,0.03-0.037
					c-0.015-0.012-0.029-0.024-0.044-0.035c-0.01,0.012-0.019,0.026-0.029,0.038c-0.873,1.022-2.408,1.142-3.43,0.27
					c-1.022-0.873-1.142-2.408-0.27-3.43c0.011-0.013,0.024-0.025,0.036-0.038c-0.014-0.013-0.028-0.026-0.042-0.038
					c-0.012,0.013-0.022,0.026-0.035,0.038c-0.95,0.95-2.491,0.949-3.441-0.001c-0.95-0.95-0.949-2.491,0.001-3.44
					c0.012-0.012,0.025-0.022,0.037-0.034c-0.013-0.014-0.026-0.027-0.039-0.041c-0.012,0.011-0.023,0.023-0.036,0.034
					c-1.022,0.872-2.558,0.75-3.43-0.272c-0.872-1.022-0.75-2.558,0.272-3.43c0.012-0.01,0.024-0.018,0.036-0.028
					c-0.012-0.015-0.023-0.03-0.034-0.045c-0.012,0.009-0.023,0.02-0.036,0.029c-1.088,0.789-2.609,0.546-3.398-0.542
					c-0.789-1.088-0.546-2.609,0.542-3.398c0.012-0.009,0.025-0.016,0.037-0.024c-0.01-0.016-0.021-0.031-0.031-0.047
					c-0.013,0.008-0.024,0.018-0.037,0.025c-1.147,0.7-2.644,0.339-3.344-0.808c-0.701-1.146-0.339-2.644,0.808-3.344
					c0.012-0.007,0.024-0.012,0.035-0.019c-0.009-0.016-0.018-0.033-0.028-0.049c-0.012,0.006-0.023,0.014-0.035,0.02
					c-1.198,0.608-2.662,0.13-3.27-1.069c-0.608-1.198-0.13-2.662,1.069-3.27c0.01-0.005,0.021-0.009,0.031-0.014
					c-0.008-0.017-0.016-0.034-0.024-0.051c-0.01,0.005-0.02,0.01-0.031,0.015c-1.242,0.512-2.664-0.081-3.176-1.323
					c-0.512-1.242,0.081-2.664,1.323-3.176c0.01-0.004,0.02-0.007,0.03-0.011c-0.007-0.018-0.012-0.035-0.019-0.053
					c-0.01,0.003-0.02,0.008-0.03,0.012c-1.279,0.412-2.65-0.29-3.062-1.569c-0.412-1.279,0.29-2.65,1.569-3.062
					c0.011-0.004,0.023-0.006,0.035-0.009c-0.005-0.018-0.01-0.036-0.015-0.054c-0.012,0.003-0.023,0.007-0.035,0.01
					c-1.307,0.31-2.618-0.498-2.929-1.805c-0.31-1.307,0.498-2.618,1.805-2.929c0.013-0.003,0.027-0.005,0.04-0.007
					c-0.004-0.018-0.007-0.037-0.011-0.055c-0.014,0.002-0.026,0.006-0.04,0.008c-1.328,0.206-2.571-0.703-2.777-2.031
					c-0.206-1.328,0.703-2.571,2.031-2.777c0.016-0.003,0.031-0.003,0.046-0.005c-0.002-0.019-0.004-0.037-0.007-0.056
					c-0.016,0.001-0.031,0.005-0.046,0.006c-0.811,0.061-1.555-0.287-2.042-0.866c-0.956,0.228-1.729,1.009-1.897,2.039
					c-0.223,1.368,0.706,2.658,2.075,2.881c0.015,0.002,0.029,0.003,0.044,0.005c-0.002,0.019-0.004,0.039-0.006,0.058
					c-0.015-0.001-0.029-0.005-0.044-0.006c-1.382-0.114-2.595,0.913-2.709,2.295c-0.114,1.382,0.913,2.595,2.295,2.709
					c0.017,0.001,0.034,0.001,0.051,0.002c-0.001,0.019-0.001,0.039-0.002,0.058c-0.017,0-0.034-0.003-0.051-0.003
					c-1.387-0.005-2.515,1.115-2.52,2.501c-0.005,1.387,1.115,2.515,2.501,2.52c0.018,0,0.035-0.002,0.052-0.002
					c0.001,0.019,0.002,0.039,0.002,0.058c-0.018,0.001-0.035,0-0.053,0.001c-1.383,0.104-2.419,1.309-2.315,2.692
					c0.104,1.383,1.31,2.419,2.692,2.315c0.016-0.001,0.031-0.005,0.048-0.006c0.002,0.019,0.005,0.039,0.007,0.058
					c-0.016,0.002-0.032,0.003-0.048,0.005c-1.37,0.213-2.308,1.496-2.095,2.866c0.213,1.37,1.496,2.308,2.866,2.095
					c0.014-0.002,0.027-0.006,0.041-0.009c0.004,0.019,0.007,0.038,0.011,0.057c-0.014,0.003-0.027,0.004-0.041,0.008
					c-1.349,0.32-2.183,1.673-1.863,3.022c0.32,1.349,1.673,2.183,3.022,1.863c0.012-0.003,0.023-0.007,0.036-0.01
					c0.005,0.019,0.01,0.037,0.015,0.056c-0.012,0.004-0.024,0.006-0.036,0.009c-1.32,0.425-2.045,1.84-1.619,3.16
					c0.425,1.32,1.84,2.045,3.16,1.619c0.011-0.003,0.021-0.008,0.031-0.012c0.007,0.018,0.013,0.036,0.019,0.055
					c-0.01,0.004-0.021,0.007-0.031,0.011c-1.282,0.528-1.893,1.995-1.365,3.277c0.528,1.282,1.995,1.893,3.278,1.365
					c0.011-0.005,0.021-0.01,0.032-0.015c0.008,0.018,0.017,0.035,0.025,0.052c-0.011,0.005-0.022,0.009-0.033,0.014
					c-1.236,0.627-1.73,2.138-1.103,3.375c0.628,1.236,2.138,1.73,3.375,1.103c0.012-0.006,0.024-0.014,0.036-0.021
					c0.009,0.017,0.019,0.034,0.028,0.051c-0.012,0.007-0.025,0.013-0.037,0.02c-1.183,0.723-1.556,2.268-0.833,3.451
					c0.723,1.183,2.268,1.556,3.451,0.833c0.013-0.008,0.025-0.018,0.038-0.026c0.011,0.016,0.021,0.033,0.032,0.049
					c-0.013,0.009-0.026,0.016-0.039,0.025c-1.123,0.814-1.373,2.383-0.559,3.506c0.814,1.122,2.383,1.373,3.506,0.559
					c0.013-0.01,0.024-0.02,0.037-0.03c0.012,0.015,0.023,0.031,0.036,0.046c-0.012,0.01-0.025,0.018-0.037,0.029
					c-1.055,0.9-1.181,2.484-0.281,3.539c0.9,1.055,2.484,1.181,3.539,0.281c0.013-0.011,0.025-0.024,0.038-0.035
					c0.013,0.014,0.027,0.028,0.04,0.043c-0.013,0.012-0.026,0.022-0.038,0.035c-0.981,0.98-0.981,2.57-0.001,3.55
					c0.98,0.981,2.57,0.981,3.55,0.001c0.013-0.013,0.023-0.027,0.036-0.04c0.014,0.013,0.029,0.026,0.043,0.04
					c-0.012,0.013-0.025,0.025-0.037,0.039c-0.9,1.054-0.776,2.639,0.278,3.539c1.054,0.901,2.639,0.776,3.54-0.278
					c0.011-0.013,0.02-0.026,0.03-0.039c0.015,0.012,0.03,0.024,0.046,0.036c-0.01,0.013-0.021,0.025-0.031,0.038
					c-0.815,1.122-0.565,2.692,0.557,3.507c1.122,0.815,2.692,0.565,3.506-0.556c0.009-0.012,0.015-0.024,0.024-0.036
					c0.016,0.011,0.033,0.021,0.049,0.032c-0.008,0.012-0.017,0.023-0.025,0.036c-0.724,1.183-0.352,2.728,0.831,3.452
					c1.183,0.724,2.728,0.352,3.452-0.831c0.007-0.012,0.013-0.025,0.02-0.037c0.017,0.01,0.034,0.019,0.051,0.028
					c-0.007,0.012-0.014,0.024-0.021,0.036c-0.628,1.236-0.136,2.747,1.1,3.376c1.236,0.628,2.747,0.136,3.376-1.1
					c0.006-0.011,0.01-0.023,0.016-0.035c0.018,0.008,0.035,0.016,0.053,0.024c-0.005,0.012-0.011,0.023-0.016,0.034
					c-0.529,1.282,0.081,2.749,1.363,3.279c1.282,0.529,2.749-0.081,3.278-1.363c0.004-0.011,0.007-0.022,0.011-0.032
					c0.018,0.007,0.036,0.014,0.054,0.02c-0.004,0.011-0.008,0.021-0.012,0.032c-0.426,1.319,0.298,2.734,1.617,3.161
					c1.319,0.426,2.734-0.298,3.161-1.617c0.003-0.011,0.005-0.021,0.009-0.032c0.019,0.005,0.037,0.01,0.056,0.015
					c-0.003,0.011-0.007,0.021-0.01,0.032c-0.321,1.349,0.512,2.703,1.861,3.024c1.349,0.321,2.703-0.512,3.024-1.861
					c0.003-0.013,0.004-0.026,0.007-0.039c0.019,0.004,0.038,0.007,0.057,0.011c-0.002,0.013-0.006,0.026-0.008,0.039
					c-0.214,1.37,0.723,2.654,2.093,2.868c1.37,0.214,2.654-0.723,2.868-2.093c0.002-0.016,0.003-0.031,0.005-0.047
					c0.019,0.002,0.039,0.004,0.058,0.006c-0.002,0.016-0.005,0.031-0.006,0.047c-0.105,1.383,0.93,2.589,2.313,2.694
					c1.383,0.105,2.589-0.93,2.694-2.313c0.001-0.018,0-0.035,0.001-0.053c0.019,0.001,0.039,0.001,0.058,0.002
					c0,0.018-0.003,0.035-0.003,0.053c0.004,1.387,1.131,2.507,2.518,2.503c0.678-0.002,1.291-0.273,1.741-0.711
					c0.475,0.411,1.103,0.646,1.78,0.608c1.384-0.077,2.444-1.262,2.367-2.646c-0.001-0.017-0.004-0.033-0.005-0.049
					c0.019-0.002,0.039-0.003,0.058-0.005c0.002,0.016,0.002,0.033,0.004,0.049c0.186,1.374,1.45,2.337,2.824,2.151
					c1.374-0.186,2.337-1.451,2.151-2.824c-0.002-0.014-0.006-0.028-0.008-0.042c0.019-0.003,0.038-0.006,0.057-0.01
					c0.003,0.014,0.004,0.028,0.007,0.042c0.294,1.355,1.63,2.216,2.985,1.922c1.355-0.294,2.216-1.63,1.922-2.985
					c-0.003-0.012-0.007-0.023-0.009-0.034c0.019-0.005,0.038-0.009,0.056-0.014c0.003,0.011,0.005,0.023,0.008,0.034
					c0.399,1.328,1.799,2.08,3.127,1.681c1.328-0.399,2.08-1.799,1.681-3.127c-0.003-0.01-0.008-0.02-0.011-0.031
					c0.018-0.006,0.036-0.013,0.055-0.019c0.004,0.01,0.007,0.021,0.01,0.032c0.503,1.292,1.958,1.932,3.25,1.429
					c1.292-0.503,1.932-1.958,1.429-3.25c-0.005-0.011-0.01-0.022-0.015-0.033c0.018-0.008,0.035-0.016,0.053-0.024
					c0.005,0.011,0.009,0.023,0.014,0.034c0.603,1.249,2.104,1.772,3.353,1.169c1.248-0.603,1.772-2.104,1.169-3.353
					c-0.006-0.012-0.013-0.023-0.02-0.036c0.017-0.009,0.034-0.018,0.051-0.027c0.007,0.012,0.012,0.024,0.019,0.036
					c0.7,1.197,2.237,1.6,3.434,0.901c1.197-0.699,1.601-2.237,0.901-3.434c-0.007-0.013-0.016-0.024-0.024-0.036
					c0.016-0.01,0.033-0.02,0.049-0.031c0.008,0.012,0.015,0.025,0.023,0.037c0.792,1.138,2.356,1.419,3.495,0.628
					s1.419-2.356,0.628-3.494c-0.009-0.013-0.02-0.024-0.029-0.037c0.016-0.012,0.031-0.024,0.046-0.036
					c0.01,0.012,0.018,0.026,0.028,0.038c0.879,1.072,2.461,1.229,3.533,0.35c1.072-0.879,1.229-2.461,0.35-3.533
					c-0.011-0.014-0.024-0.025-0.035-0.039c0.015-0.013,0.029-0.026,0.044-0.039c0.012,0.013,0.022,0.027,0.035,0.04
					c0.961,1,2.55,1.032,3.55,0.071c1-0.961,1.032-2.55,0.071-3.55c-0.012-0.013-0.026-0.024-0.039-0.036
					c0.014-0.014,0.027-0.028,0.041-0.042c0.013,0.012,0.024,0.025,0.038,0.037c1.036,0.921,2.623,0.828,3.544-0.209
					c0.921-1.036,0.828-2.623-0.209-3.544c-0.012-0.011-0.025-0.02-0.037-0.03c0.012-0.015,0.025-0.029,0.037-0.045
					c0.013,0.01,0.024,0.021,0.036,0.03c1.106,0.837,2.68,0.618,3.517-0.487c0.836-1.106,0.618-2.68-0.487-3.517
					c-0.013-0.01-0.026-0.017-0.039-0.026c0.011-0.016,0.022-0.032,0.033-0.048c0.013,0.009,0.025,0.019,0.038,0.027
					c1.168,0.747,2.721,0.405,3.467-0.763c0.747-1.168,0.405-2.721-0.763-3.467c-0.012-0.008-0.025-0.014-0.038-0.022
					c0.01-0.017,0.02-0.033,0.029-0.05c0.013,0.007,0.024,0.016,0.037,0.022c1.223,0.653,2.744,0.19,3.397-1.034
					c0.652-1.223,0.19-2.744-1.034-3.397c-0.011-0.006-0.023-0.01-0.034-0.016c0.008-0.017,0.017-0.035,0.026-0.052
					c0.011,0.005,0.022,0.012,0.033,0.017c1.271,0.554,2.75-0.027,3.305-1.298c0.554-1.271-0.027-2.75-1.298-3.305
					c-0.01-0.004-0.02-0.007-0.03-0.011c0.007-0.018,0.013-0.036,0.02-0.054c0.01,0.004,0.02,0.009,0.03,0.012
					c1.311,0.452,2.74-0.244,3.192-1.555c0.452-1.311-0.244-2.74-1.555-3.192c-0.011-0.004-0.023-0.006-0.034-0.01
					c0.006-0.018,0.011-0.037,0.016-0.056c0.012,0.003,0.022,0.008,0.034,0.011c1.342,0.348,2.712-0.459,3.06-1.801
					c0.348-1.342-0.459-2.712-1.801-3.06c-0.013-0.003-0.026-0.005-0.039-0.008c0.004-0.019,0.008-0.038,0.012-0.057
					c0.013,0.003,0.026,0.007,0.039,0.009c1.366,0.241,2.668-0.671,2.908-2.037c0.241-1.366-0.671-2.667-2.037-2.908
					c-0.015-0.003-0.03-0.003-0.046-0.006c0.003-0.019,0.005-0.038,0.008-0.058c0.015,0.002,0.03,0.005,0.046,0.007
					c1.38,0.132,2.606-0.879,2.739-2.259C317.972,152.315,316.961,151.089,315.581,150.957z"/>
			</g>
		</g>
		<g>
			<path style="fill:#AF5231;" d="M258.299,223.485c0,0,32.717-21.461,56.497-12.712c17.145,6.308,43.217,91.161,56.431,138.021
				c4.329,15.35-3.277,27.775-19.225,27.775h-12.615l-34.279-111.226l-7.046,15.83c0,0,5.725,20.257-3.082,34.349
				c10.128,57.248,10.128,63.853,10.128,63.853H251.21V230.531L258.299,223.485z"/>
			<path style="opacity:0.21;fill:#863627;" d="M371.227,348.794c-0.622-2.207-1.273-4.498-1.95-6.861
				c-5.37,3.229-22.62,15.521-16.456,36.968C366.212,376.239,375.112,362.569,371.227,348.794z"/>
			<path style="fill:#AF5231;" d="M344.301,379.375H219.58c0,0-6.508-17.615,33.565-22.459c40.073-4.844,81.468-12.33,81.468-12.33
				S353.548,359.559,344.301,379.375z"/>
			<line style="fill:none;stroke:#72130A;stroke-miterlimit:10;" x1="324.083" y1="346.42" x2="348.264" y2="341.934"/>
			<line style="fill:none;stroke:#72130A;stroke-miterlimit:10;" x1="305.108" y1="265.344" x2="300.924" y2="255.599"/>
			<path style="opacity:0.14;fill:#EFEEE4;" d="M314.796,210.773c-0.81-0.298-1.632-0.554-2.46-0.784
				c-2.708,4.745-4.69,13.192-0.658,27.588c7.522,26.861,68.4,114.928,52.718,135.41c6.324-5.862,9.423-15.004,6.832-24.192
				C358.013,301.934,331.941,217.081,314.796,210.773z"/>
		</g>
		<g>
			<path style="fill:#AF5231;" d="M244.121,223.485c0,0-32.717-21.461-56.497-12.712c-17.145,6.308-43.217,91.161-56.431,138.021
				c-4.329,15.35,3.277,27.775,19.225,27.775h12.615l34.279-111.226l7.046,15.83c0,0-5.725,20.257,3.083,34.349
				c-10.128,57.248-10.128,63.853-10.128,63.853h53.898V230.531L244.121,223.485z"/>
			<path style="opacity:0.21;fill:#863627;" d="M131.193,348.794c0.622-2.207,1.273-4.498,1.95-6.861
				c5.37,3.229,22.62,15.521,16.456,36.968C136.208,376.239,127.309,362.569,131.193,348.794z"/>
			<path style="fill:#AF5231;" d="M158.12,379.375h124.721c0,0,6.508-17.615-33.565-22.459c-40.073-4.844-81.468-12.33-81.468-12.33
				S148.872,359.559,158.12,379.375z"/>
			<line style="fill:none;stroke:#72130A;stroke-miterlimit:10;" x1="178.337" y1="346.42" x2="154.157" y2="341.934"/>
			<line style="fill:none;stroke:#72130A;stroke-miterlimit:10;" x1="197.313" y1="265.344" x2="201.496" y2="255.599"/>
			<path style="opacity:0.21;fill:#863627;" d="M187.625,210.773c0.81-0.298,1.632-0.554,2.46-0.784
				c2.708,4.745,4.69,13.192,0.658,27.588c-7.522,26.861-68.4,114.928-52.718,135.41c-6.324-5.862-9.423-15.004-6.832-24.192
				C144.408,301.934,170.48,217.081,187.625,210.773z"/>
		</g>
		<path style="fill:#FFA506;" d="M294.98,315.522c8.807-14.092,3.082-34.348,3.082-34.348c-11.614-23.426-9.74-57.973-8.509-70.978
			c-16.727,3.771-31.254,13.29-31.254,13.29l-7.089,7.046l-7.089-7.046c0,0-14.527-9.519-31.254-13.29
			c1.231,13.004,3.105,47.552-8.509,70.978c0,0-5.725,20.257,3.083,34.348c-10.128,57.248-10.128,63.853-10.128,63.853h53.898
			h53.898C305.108,379.375,305.108,372.769,294.98,315.522z"/>
		
			<ellipse transform="matrix(0.2285 -0.9736 0.9736 0.2285 -55.0357 410.2065)" style="fill:#FFF6E7;" cx="231.287" cy="239.826" rx="13.242" ry="13.242"/>
		<g>
			<defs>
				<path id="SVGID_1_" d="M294.98,315.522c8.807-14.092,3.082-34.348,3.082-34.348c-11.614-23.426-9.74-57.973-8.509-70.978
					c-16.727,3.771-31.254,13.29-31.254,13.29l-7.089,7.046l-7.089-7.046c0,0-14.527-9.519-31.254-13.29
					c1.231,13.004,3.105,47.552-8.509,70.978c0,0-5.725,20.257,3.083,34.348c-10.128,57.248-10.128,63.853-10.128,63.853h53.898
					h53.898C305.108,379.375,305.108,372.769,294.98,315.522z"/>
			</defs>
			<clipPath id="SVGID_00000062875132399308849710000007675173073560353202_">
				<use xlink:href="#SVGID_1_"  style="overflow:visible;"/>
			</clipPath>
			<g style="clip-path:url(#SVGID_00000062875132399308849710000007675173073560353202_);">
				<rect x="163.75" y="299.681" style="fill:#D66562;" width="170.862" height="8.612"/>
				<rect x="163.75" y="325.455" style="fill:#D66562;" width="170.862" height="8.612"/>
			</g>
		</g>
		<path style="fill:#AF5231;" d="M226.233,214.421c10.407,4.162,17.889,9.064,17.889,9.064l7.089,7.046v20.257
			C227.073,250.788,225.976,223.16,226.233,214.421z"/>
		<path style="fill:#AF5231;" d="M276.188,214.421c-10.407,4.162-17.889,9.064-17.889,9.064l-7.089,7.046v20.257
			C275.347,250.788,276.444,223.16,276.188,214.421z"/>
		<path style="fill:#AF5231;" d="M263.714,201.247l-12.44,1.32l-12.44-1.32l-2.594,33.027c0,0,2.815,11.449,15.035,11.449
			c12.22,0,15.035-11.449,15.035-11.449L263.714,201.247z"/>
		<path style="fill:#591F12;" d="M264.113,206.33l-0.399-5.083l-12.44,1.32l-12.44-1.32l-1.658,21.112
			C251.268,218.35,261.712,213.335,264.113,206.33z"/>
		
			<ellipse transform="matrix(0.9251 -0.3796 0.3796 0.9251 -87.0169 126.1171)" style="fill:#FFF6E7;" cx="276.284" cy="283.705" rx="13.242" ry="13.242"/>
		<path style="fill:none;stroke:#FFF6E7;stroke-width:2;stroke-miterlimit:10;" d="M289.553,210.196c0,0-4.262,51.602,8.509,70.978"
			/>
		<path style="fill:none;stroke:#FFF6E7;stroke-width:2;stroke-miterlimit:10;" d="M276.188,214.421c0,0,3.033,36.367-24.977,36.367
			s-24.978-36.367-24.978-36.367"/>
		<path style="fill:none;stroke:#FFF6E7;stroke-width:2;stroke-miterlimit:10;" d="M212.867,210.196c0,0,4.992,44.918-8.509,70.978"
			/>
		<polygon style="fill:#9B9889;" points="251.21,294.785 160.982,294.785 184.762,372.99 251.21,372.99 317.658,372.99 
			341.438,294.785 		"/>
		<polygon style="fill:#FFF6E7;" points="336.099,289.1 251.21,289.1 166.322,289.1 160.982,294.785 251.21,294.785 
			341.438,294.785 		"/>
		<ellipse style="fill:#7C796B;" cx="254.037" cy="331.996" rx="24.181" ry="12.181"/>
		<rect x="184.533" y="372.236" style="fill:#7C796B;" width="133.456" height="6.333"/>
		
			<ellipse transform="matrix(0.7071 -0.7071 0.7071 0.7071 -125.8931 241.7931)" style="fill:#FFF6E7;" cx="228.924" cy="272.863" rx="10.991" ry="10.991"/>
		<path style="fill:#FFF6E7;" d="M264.236,263.236c0,3.18-2.578,5.757-5.757,5.757c-3.18,0-5.757-2.578-5.757-5.757
			c0-3.18,2.578-5.757,5.757-5.757C261.659,257.478,264.236,260.056,264.236,263.236z"/>
		<path style="fill:#FFF6E7;" d="M287.162,241.231c0,3.18-2.578,5.757-5.757,5.757c-3.18,0-5.757-2.578-5.757-5.757
			c0-3.18,2.578-5.757,5.757-5.757C284.585,235.474,287.162,238.052,287.162,241.231z"/>
		<g>
			<path style="fill:#FFA506;" d="M251.278,120.289c-47.237,0-35.175,45.194-35.175,45.194
				c20.508,3.798,35.175-14.432,35.175-14.432s14.667,18.229,35.175,14.432C286.453,165.482,298.515,120.289,251.278,120.289z"/>
			<path style="fill:#C97D05;" d="M251.513,131.302c-9.023-1.139-14.523-3.038-11.302-6.836c1.654-1.95,7.568-3.298,12.932-4.149
				c-0.613-0.016-1.231-0.028-1.866-0.028c-47.237,0-35.175,45.194-35.175,45.194c2.907,0.538,5.691,0.622,8.338,0.39l29.26-22.727
				C253.7,143.146,260.536,132.442,251.513,131.302z"/>
			<g>
				<path style="fill:#933C21;" d="M295.933,177.729c-3.44,6.485-9.834,9.83-14.281,7.472c-4.447-2.359-5.263-9.529-1.823-16.014
					c3.44-6.485,9.834-9.83,14.281-7.472C298.556,164.074,299.373,171.244,295.933,177.729z"/>
				<path style="fill:#AF5231;" d="M295.933,177.729c2.992-5.641,2.761-11.796-0.276-14.856c-3.391,0.853-6.881,3.73-9.12,7.952
					c-2.992,5.641-2.761,11.796,0.276,14.856C290.203,184.828,293.694,181.951,295.933,177.729z"/>
				<path style="fill:none;stroke:#FFA506;stroke-width:1.1499;stroke-miterlimit:10;" d="M276.325,183.44
					c-1.771,1.771-2.866,4.217-2.866,6.919c0,5.405,4.381,9.786,9.786,9.786c5.405,0,9.786-4.381,9.786-9.786
					c0-4.615-3.195-8.484-7.493-9.516"/>
			</g>
			<g>
				<path style="fill:#933C21;" d="M206.622,177.729c3.44,6.485,9.834,9.83,14.281,7.472c4.447-2.359,5.263-9.529,1.824-16.014
					c-3.44-6.485-9.834-9.83-14.281-7.472C203.999,164.074,203.182,171.244,206.622,177.729z"/>
				<path style="fill:#AF5231;" d="M206.622,177.729c-2.992-5.641-2.761-11.796,0.276-14.856c3.391,0.853,6.881,3.73,9.12,7.952
					c2.992,5.641,2.761,11.796-0.276,14.856C212.352,184.828,208.862,181.951,206.622,177.729z"/>
				<path style="fill:none;stroke:#FFA506;stroke-width:1.1499;stroke-miterlimit:10;" d="M217.018,180.844
					c-4.298,1.032-7.493,4.901-7.493,9.516c0,5.405,4.381,9.786,9.786,9.786s9.786-4.381,9.786-9.786
					c0-2.702-1.095-5.149-2.866-6.919"/>
			</g>
			<path style="fill:#AF5231;" d="M251.273,134.72c-40.804-2.272-35.505,27.727-27.521,52.227
				c7.672,23.543,26.044,26.204,27.472,26.377c0,0.001,0,0.011,0,0.011s0.021-0.002,0.049-0.005
				c0.029,0.003,0.049,0.005,0.049,0.005s0-0.011,0-0.011c1.428-0.173,19.799-2.833,27.472-26.377
				C286.778,162.447,292.077,132.448,251.273,134.72z"/>
			<path style="fill:#EFEEE4;" d="M276.935,172.48c0.36,2.59-3.558,5.275-8.752,5.997c-5.194,0.722-9.697-0.792-10.057-3.381
				c-0.36-2.59,3.559-5.275,8.752-5.997C272.073,168.377,276.575,169.891,276.935,172.48z"/>
			<path style="fill:#381612;" d="M269.496,168.923c-0.84-0.003-1.717,0.051-2.617,0.176c-0.903,0.125-1.765,0.314-2.575,0.547
				c-2.154,1.225-3.609,3.536-3.609,6.19c0,0.717,0.109,1.409,0.306,2.062c1.853,0.709,4.416,0.964,7.183,0.579
				c2.764-0.384,5.158-1.327,6.747-2.513c0.001-0.043,0.006-0.084,0.006-0.128C274.937,172.484,272.617,169.679,269.496,168.923z"/>
			<path style="fill:#EFEEE4;" d="M251.278,196.885c-1.708,0-3.361-0.191-4.938-0.545c-1.14-0.256-1.834,1.276-0.891,1.966
				c1.565,1.145,3.601,1.838,5.829,1.838c2.228,0,4.263-0.693,5.829-1.838c0.943-0.69,0.249-2.222-0.891-1.966
				C254.639,196.694,252.985,196.885,251.278,196.885z"/>
			<path style="fill:none;stroke:#381612;stroke-width:2.1295;stroke-linecap:round;stroke-miterlimit:10;" d="M258.127,175.096
				c-0.36-2.59,3.559-5.275,8.752-5.997c5.194-0.722,9.696,0.791,10.056,3.381"/>
			<path style="fill:#933C21;" d="M254.492,191.27c0,0-6.502,3.284-9.065,1.006c-2.564-2.279,0.006-9.02-0.348-11.868
				c-0.354-2.848-0.957-7.211-2.156-8.4c2.836,0.73,4.277,7.632,3.518,12.379C245.681,189.134,246.281,193.462,254.492,191.27z"/>
			<path style="fill:none;stroke:#541C14;stroke-width:0.8624;stroke-linecap:round;stroke-miterlimit:10;" d="M245.079,173.79
				c0,0,2.452,6.983,1.016,12.508c-1.436,5.525,6.077,6.851,8.397,4.972"/>
			<path style="fill:#EFEEE4;" d="M225.62,172.48c-0.36,2.59,3.558,5.275,8.752,5.997c5.194,0.722,9.696-0.792,10.057-3.381
				c0.36-2.59-3.559-5.275-8.752-5.997C230.482,168.377,225.98,169.891,225.62,172.48z"/>
			<path style="fill:#381612;" d="M233.059,168.923c0.841-0.003,1.717,0.051,2.617,0.176c0.903,0.125,1.765,0.314,2.575,0.547
				c2.154,1.225,3.609,3.536,3.609,6.19c0,0.717-0.108,1.409-0.306,2.062c-1.853,0.709-4.416,0.964-7.183,0.579
				c-2.764-0.384-5.159-1.327-6.748-2.513c-0.001-0.043-0.006-0.084-0.006-0.128C227.618,172.484,229.938,169.679,233.059,168.923z"
				/>
			<path style="fill:none;stroke:#381612;stroke-width:2.1295;stroke-linecap:round;stroke-miterlimit:10;" d="M244.429,175.096
				c0.36-2.59-3.559-5.275-8.752-5.997c-5.194-0.722-9.696,0.791-10.057,3.381"/>
			<path style="fill:#381612;" d="M258.104,161.685c0,0,11.548-6.359,22.561,1.188C278.766,156.368,264.93,149.532,258.104,161.685z
				"/>
			<path style="fill:#381612;" d="M244.452,161.685c0,0-11.548-6.359-22.561,1.188C223.789,156.368,237.626,149.532,244.452,161.685
				z"/>
			<path style="opacity:0.14;fill:#EFEEE4;" d="M278.794,186.947c7.984-24.5,13.283-54.499-27.521-52.227
				c-8.941-0.498-15.667,0.554-20.638,2.758c-4.206,8.764-11.173,28.76-0.594,50.032c9.705,19.516,20.604,23.519,27.971,23.862
				C264.446,208.627,273.844,202.136,278.794,186.947z"/>
		</g>
		<path style="fill:none;stroke:#FCD59D;stroke-miterlimit:10;" d="M253.329,120.731c0,0,40.49-2.397,33.834,41.137"/>
		<path style="opacity:0.44;fill:#7C796B;" d="M317.887,372.238c-108.579,2.676-130.283-61.987-133.917-77.452h-22.988l23.78,78.204
			h66.448h66.448L317.887,372.238z"/>
		<circle style="fill:#FFF6E7;" cx="231.393" cy="173.74" r="1.536"/>
		<circle style="fill:#FFF6E7;" cx="264.771" cy="173.74" r="1.536"/>
	</g>
	<path style="fill:#EDDFCA;" d="M121.074,0c0,0,2.896,21.643-50.718,18.329c-53.614-3.314-56.541,27.995-36.54,100.992
		c18.537,68.027-33.75,72.445-33.75,72.445V0H121.074z"/>
	<path style="fill:none;stroke:#EDDFCA;stroke-width:0.7858;stroke-miterlimit:10;" d="M126.714,0c0,0,3.031,22.826-53.081,19.331
		C17.52,15.836,14.456,48.855,35.389,125.842c19.401,71.744-35.323,76.404-35.323,76.404"/>
	<path style="fill:#EDDFCA;" d="M357.795,0c0,0-12.176,39.094,45.636,35.791c57.812-3.303,88.897,23.658,82.782,78.875
		c-6.115,55.217,13.638,47.22,13.638,47.22V0H357.795z"/>
	<path style="fill:none;stroke:#EDDFCA;stroke-width:0.8783;stroke-miterlimit:10;" d="M350.073,0c0,0-12.838,41.56,48.117,38.049
		c60.954-3.511,93.729,25.151,87.282,83.851c-6.447,58.7,14.379,50.199,14.379,50.199"/>
	<path style="fill:#C44D18;" d="M459.418,394.729H43.113c-5.015,0-9.08-4.065-9.08-9.08l0,0c0-5.015,4.065-9.08,9.08-9.08h416.305
		c5.014,0,9.08,4.065,9.08,9.08l0,0C468.498,390.664,464.432,394.729,459.418,394.729z"/>
	<path style="fill:#9E3A13;" d="M459.418,385.649H43.113c-3.359,0-6.285,1.828-7.855,4.54c1.571,2.711,4.496,4.54,7.855,4.54
		h416.305c3.359,0,6.284-1.829,7.855-4.54C465.702,387.478,462.777,385.649,459.418,385.649z"/>
	<g>
		<g>
			<path style="fill:#7DBB77;" d="M62.524,239.473c0,0-11.079-12.927-17.06-6.915C39.482,238.571,51.152,245.037,62.524,239.473z"/>
			<path style="fill:#7DBB77;" d="M77.044,273.111c0,0-1.976-16.91-10.296-15.26C58.429,259.501,64.502,271.38,77.044,273.111z"/>
			<path style="fill:#7DBB77;" d="M75.687,235.304c0,0-1.976-16.91-10.296-15.26C57.072,221.693,63.145,233.573,75.687,235.304z"/>
			<path style="fill:#7DBB77;" d="M93.812,284.198c0,0,13.995-9.695,8.627-16.261C97.072,261.369,89.444,272.315,93.812,284.198z"/>
			<path style="fill:none;stroke:#21442F;stroke-width:1.012;stroke-linecap:round;stroke-miterlimit:10;" d="M99.237,314.416
				c0,0-17.342-8.942-13.407-37.021c3.935-28.078-22.708-37.669-28.538-39.396"/>
			<path style="fill:none;stroke:#21442F;stroke-width:1.012;stroke-linecap:round;stroke-miterlimit:10;" d="M78.379,250.544
				c0,0-0.125-12.229-6.823-19.726"/>
			<path style="fill:none;stroke:#21442F;stroke-width:1.012;stroke-linecap:round;stroke-miterlimit:10;" d="M85.83,277.395
				c0,0-9.926-1.768-14.369-10.503"/>
			<path style="fill:none;stroke:#21442F;stroke-width:1.012;stroke-linecap:round;stroke-miterlimit:10;" d="M86.299,295.176
				c0,0,8.536-6.455,9.926-20.131"/>
		</g>
		<g>
			<path style="fill:#7DBB77;" d="M129.693,250.026c0,0,9.349-10.909,14.396-5.835C149.137,249.265,139.289,254.721,129.693,250.026
				z"/>
			<path style="fill:#7DBB77;" d="M117.441,278.413c0,0,1.668-14.269,8.688-12.877C133.149,266.928,128.024,276.952,117.441,278.413
				z"/>
			<path style="fill:#7DBB77;" d="M118.586,246.508c0,0,1.668-14.269,8.688-12.877C134.294,235.023,129.169,245.048,118.586,246.508
				z"/>
			<path style="fill:#7DBB77;" d="M103.29,287.768c0,0-11.81-8.181-7.28-13.722C100.539,268.504,106.977,277.741,103.29,287.768z"/>
			<path style="fill:none;stroke:#21442F;stroke-width:0.854;stroke-linecap:round;stroke-miterlimit:10;" d="M98.712,313.268
				c0,0,14.634-7.546,11.314-31.24c-3.32-23.694,19.163-31.788,24.082-33.245"/>
			<path style="fill:none;stroke:#21442F;stroke-width:0.854;stroke-linecap:round;stroke-miterlimit:10;" d="M116.314,259.369
				c0,0,0.105-10.319,5.758-16.646"/>
			<path style="fill:none;stroke:#21442F;stroke-width:0.854;stroke-linecap:round;stroke-miterlimit:10;" d="M110.026,282.028
				c0,0,8.376-1.492,12.125-8.863"/>
			<path style="fill:none;stroke:#21442F;stroke-width:0.854;stroke-linecap:round;stroke-miterlimit:10;" d="M109.63,297.033
				c0,0-7.204-5.447-8.376-16.988"/>
		</g>
		<g>
			<path style="fill:#599172;" d="M72.483,331.812c0,0-15.514-20.628-10.704-49.731c12.306,6.742,34.087,35.202,28.311,61.114
				C72.483,331.812,72.483,331.812,72.483,331.812z"/>
			<path style="opacity:0.45;fill:#394C77;" d="M70.439,288.983c3.072,29.838,19.98,51.651,19.98,51.651
				c0.058-0.066,0.117-0.146,0.176-0.216C93.507,320.754,81.494,300.142,70.439,288.983z"/>
			<g>
				<path style="fill:#417556;" d="M108.718,337.596c0,0,19.868-15.152,28.698-44.754c8.83-29.602,0.631-44.286,4.415-68.796
					c-20.183,34.148-43.63,90.695-43.575,118.24C101.465,343.973,108.718,337.596,108.718,337.596z"/>
				<path style="opacity:0.45;fill:#394C77;" d="M101.606,340.634c5.798-6.582,12.408-32.615,15.574-66.767
					c-9.564,22.866-17.024,46.072-18.605,62.368C100.4,339.077,101.606,340.634,101.606,340.634z"/>
			</g>
			<path style="fill:#7DBB77;" d="M96.419,340.634c0,0-24.594-31.689-19.866-70.94c4.728-39.251,33.527-69.734,32.162-101.587
				C121.648,243.898,107.536,328.014,96.419,340.634z"/>
			<path style="fill:#133F1A;" d="M94.914,335.072c0,0,13.691-79.228,10.335-107.039c-3.154,32.054-14.516,104.37-14.516,104.37
				L94.914,335.072z"/>
			<path style="opacity:0.45;fill:#394C77;" d="M72.483,331.812c0,0,0,0,17.607,11.383c0.205-0.923,0.367-1.849,0.505-2.777l0-0.001
				c0.172-1.161,0.283-2.326,0.354-3.492c0.007-0.116,0.016-0.23,0.022-0.345c0.062-1.186,0.081-2.373,0.047-3.56v-0.002
				c-0.004-0.149-0.015-0.298-0.021-0.447l0.238,0.152c2.968,5.046,5.185,7.911,5.185,7.911c0.672-0.762,1.354-1.792,2.042-3.059
				c-0.129,1.645-0.208,3.228-0.205,4.712c3.209,1.686,10.462-4.691,10.462-4.691s9.316-7.108,18.024-21.092
				c-17.034,7.852-46.315,7.151-59.325,6.366C70.054,328.574,72.483,331.812,72.483,331.812z"/>
			<polygon style="fill:#FFA506;" points="92.969,327.449 61.209,327.449 72.875,370.938 92.969,370.938 113.063,370.938 
				124.729,327.449 			"/>
			<rect x="72.875" y="370.938" style="fill:#FFCB57;" width="40.191" height="5.542"/>
			<polygon style="opacity:0.4;fill:#893A3A;" points="86.301,376.48 86.301,370.938 79.15,327.449 61.209,327.449 72.875,370.938 
				72.875,376.48 			"/>
			
				<line style="fill:none;stroke:#721C1F;stroke-width:1.5762;stroke-miterlimit:10;" x1="72.875" y1="370.938" x2="113.063" y2="370.938"/>
		</g>
	</g>
	<path style="fill:#72130A;" d="M67.417,422.651c20.308,15.986,47.474,27.729,75.542,34.533
		c78.434,19.012,180.447,18.608,244.741-14.396c15.497-7.955,29.996-18.244,42.439-30.445v-17.614H67.417V422.651z"/>
	<rect x="67.417" y="394.729" style="fill:#490906;" width="362.722" height="12.723"/>
	<line style="fill:none;stroke:#4F4C3F;stroke-miterlimit:10;" x1="184.533" y1="376.48" x2="317.989" y2="376.48"/>
	<g>
		<path style="fill:#51788E;" d="M433.269,230.819c0,6.161-1.03,11.156-2.3,11.156c-1.27,0-2.3-4.995-2.3-11.156
			c0-6.161,1.03-11.155,2.3-11.155C432.239,219.663,433.269,224.658,433.269,230.819z"/>
		<path style="fill:#51788E;" d="M430.969,228.518c6.161,0,11.156,1.03,11.156,2.3s-4.995,2.3-11.156,2.3
			c-6.161,0-11.156-1.03-11.156-2.3S424.808,228.518,430.969,228.518z"/>
	</g>
	<g>
		<path style="fill:#6FB590;" d="M224.31,68.749c0,4.253-0.711,7.701-1.588,7.701c-0.877,0-1.588-3.448-1.588-7.701
			c0-4.253,0.711-7.701,1.588-7.701C223.599,61.049,224.31,64.496,224.31,68.749z"/>
		<ellipse style="fill:#6FB590;" cx="222.723" cy="68.749" rx="7.701" ry="1.588"/>
	</g>
	<polygon style="fill:#C44D18;" points="255.297,46.358 255.26,53.946 255.224,61.534 248.671,57.708 242.118,53.883 248.707,50.12 
			"/>
	<path style="fill:#C44D18;" d="M440.24,264.123c0,2.789-2.261,5.051-5.051,5.051c-2.789,0-5.051-2.261-5.051-5.051
		c0-2.789,2.261-5.051,5.051-5.051C437.979,259.072,440.24,261.333,440.24,264.123z"/>
	<path style="fill:#51788E;" d="M70.955,172.985c0,2.789-2.261,5.051-5.051,5.051c-2.789,0-5.051-2.261-5.051-5.051
		c0-2.789,2.261-5.051,5.051-5.051C68.694,167.934,70.955,170.195,70.955,172.985z"/>
	<g>
		<g>
			<rect x="384.901" y="107.241" style="fill:#FFF6E7;" width="48.104" height="66.297"/>
			<rect x="389.285" y="114.721" style="fill:#D3BFA5;" width="39.384" height="1.712"/>
			<rect x="389.285" y="118.36" style="fill:#D3BFA5;" width="39.384" height="1.712"/>
			<rect x="389.285" y="129.276" style="fill:#D3BFA5;" width="39.384" height="1.712"/>
			<rect x="389.285" y="132.915" style="fill:#D3BFA5;" width="39.384" height="1.712"/>
			<rect x="389.285" y="136.553" style="fill:#D3BFA5;" width="39.384" height="1.712"/>
			<rect x="389.285" y="140.192" style="fill:#D3BFA5;" width="39.384" height="1.712"/>
			<rect x="389.285" y="143.831" style="fill:#D3BFA5;" width="39.384" height="1.712"/>
			<rect x="389.285" y="147.469" style="fill:#D3BFA5;" width="39.384" height="1.712"/>
			<rect x="389.285" y="158.385" style="fill:#D3BFA5;" width="39.384" height="1.712"/>
			<rect x="389.285" y="162.024" style="fill:#D3BFA5;" width="39.384" height="1.712"/>
			<rect x="389.285" y="165.663" style="fill:#D3BFA5;" width="39.384" height="1.712"/>
		</g>
		<polyline style="fill:none;stroke:#AF977B;stroke-miterlimit:10;" points="384.901,107.241 384.901,173.538 433.004,173.538 		"/>
	</g>
	<g>
		<path style="fill:#51788E;" d="M424.751,322.315h-12.227v-5h12.227c4.264,0,7.732-3.469,7.732-7.732s-3.469-7.732-7.732-7.732
			h-12.227v-5h12.227c7.02,0,12.732,5.712,12.732,12.732C437.483,316.603,431.771,322.315,424.751,322.315z"/>
		<g>
			<rect x="412.524" y="317.315" style="fill:#365866;" width="11.67" height="5"/>
			<rect x="412.524" y="296.851" style="fill:#365866;" width="11.67" height="5"/>
		</g>
		<rect x="386.901" y="289.539" style="fill:#51788E;" width="33.33" height="39.292"/>
		<path style="fill:#365866;" d="M392.708,289.539h-5.807v39.292h24.743C388.965,321.542,392.708,289.539,392.708,289.539z"/>
	</g>
</g>
</svg>
